<?xml version="1.0" encoding="UTF-8"?>
<svg version="1.1" xmlns="http://www.w3.org/2000/svg" width="3920" height="1900">
<path d="M0 0 C0.84897006 -0.00438225 1.69794012 -0.00876451 2.57263654 -0.01327956 C5.42826362 -0.0266746 8.28385983 -0.03284806 11.13951111 -0.03897095 C13.18281697 -0.04687148 15.22612144 -0.0551404 17.26942444 -0.06375122 C23.99034796 -0.08998133 30.71127773 -0.10528186 37.43223572 -0.11953735 C39.74594565 -0.12489701 42.05965555 -0.13027452 44.3733654 -0.13566971 C53.99923824 -0.15730167 63.6251094 -0.17603752 73.2510004 -0.1872921 C87.04391869 -0.2035247 100.83655496 -0.23668243 114.62936693 -0.29369295 C124.32801729 -0.33241275 134.02659228 -0.35192734 143.7253179 -0.35721266 C149.51718235 -0.36086386 155.30874608 -0.37286065 161.10052681 -0.4053154 C166.55315046 -0.43543084 172.00529199 -0.44169521 177.45798111 -0.42993164 C179.45498516 -0.42971119 181.4520118 -0.43799285 183.44893837 -0.45558548 C197.04454589 -0.56880188 206.03362906 0.60119806 216.59239197 9.8218689 C217.77207947 11.15390015 217.77207947 11.15390015 217.77207947 13.15390015 C218.43207947 13.15390015 219.09207947 13.15390015 219.77207947 13.15390015 C220.97129822 14.3765564 220.97129822 14.3765564 222.45957947 16.21640015 C238.36280034 35.32737019 238.36280034 35.32737019 260.60212368 44.43095362 C261.58852921 44.44364106 262.57493474 44.4563285 263.59123135 44.46940041 C265.3121833 44.49819011 265.3121833 44.49819011 267.06790197 44.52756143 C268.32052819 44.53844662 269.57315442 44.54933182 270.86373901 44.56054688 C272.21787406 44.57885171 273.57199933 44.59789139 274.92611468 44.61759925 C278.65554299 44.66890872 282.38500406 44.70706688 286.11461468 44.74232385 C288.51564532 44.76596328 290.91661084 44.79314248 293.31759059 44.82146192 C335.26687817 45.31457698 377.21929307 45.32332913 419.17091054 45.35569813 C431.80986297 45.36600613 444.44879819 45.38607308 457.08773804 45.40625 C461.83573621 45.41371796 466.58373447 45.42113282 471.33173275 45.42853737 C472.51606862 45.43038793 473.70040448 45.4322385 474.92062931 45.43414515 C488.2323574 45.45483779 501.54408771 45.47379365 514.8558197 45.49179077 C516.0655072 45.49342895 517.27519469 45.49506714 518.52153938 45.49675496 C538.30876055 45.52328187 558.09598355 45.54181508 577.8832152 45.55838268 C598.34333129 45.57578806 618.80341086 45.60457807 639.26349777 45.64327204 C651.81852513 45.66659944 664.37349315 45.68065997 676.92854237 45.68259968 C685.48361524 45.68470505 694.03862834 45.69760023 702.59367437 45.719079 C707.52268132 45.73111352 712.45156956 45.73825453 717.38059044 45.73236656 C721.89013848 45.72707524 726.39944399 45.73553295 730.90895151 45.75492294 C732.53879249 45.75949937 734.16865717 45.75902677 735.79849333 45.75297455 C746.94621822 45.7152685 755.36973328 45.94251638 763.77207947 54.15390015 C768.05242925 59.93815661 768.92007729 64.03322781 768.90909386 71.07512188 C768.91174568 71.89504788 768.91439751 72.71497388 768.9171297 73.55974612 C768.92484177 76.33094422 768.9253826 79.10209814 768.92597961 81.87330627 C768.92999297 83.87072295 768.93443098 85.86813881 768.93925917 87.86555368 C768.95124451 93.37309343 768.95687765 98.88062441 768.96144032 104.38817465 C768.96738894 110.32085155 768.97900057 116.25351793 768.98973083 122.18618774 C769.01311077 135.84475015 769.027664 149.50331674 769.03996025 163.16189263 C769.04421447 167.88698979 769.04878018 172.61208656 769.05354357 177.33718324 C769.0788026 202.45619851 769.1008526 227.57521443 769.11327171 252.69423962 C769.11619308 258.51453339 769.11916059 264.33482713 769.12217712 270.15512085 C769.12254803 270.87822482 769.12291894 271.6013288 769.12330109 272.34634502 C769.13545799 295.79379197 769.16640431 319.24116388 769.20809865 342.68857559 C769.25087786 366.79000558 769.27751162 390.89139595 769.28274643 414.99286494 C769.28348688 418.39638482 769.28439757 421.79990464 769.28540421 425.20342445 C769.28559482 425.87327355 769.28578543 426.54312265 769.28598183 427.23327021 C769.28949644 438.01670268 769.30979901 448.80004122 769.33620084 459.58343918 C769.36233591 470.42124767 769.36966233 481.25894235 769.35909955 492.09677746 C769.35390228 497.9691511 769.35686938 503.8412258 769.38156509 509.71355629 C769.40397986 515.08826896 769.40337803 520.46246658 769.38436122 525.8371878 C769.38155032 527.78272588 769.38721993 529.72829831 769.40217416 531.67378094 C769.42125579 534.31763938 769.40950865 536.95965654 769.39011192 539.60347271 C769.40938575 540.73782354 769.40938575 540.73782354 769.42904896 541.89509055 C769.33529693 547.70665698 767.3533506 551.61306919 763.77207947 556.15390015 C761.42051697 558.2124939 761.42051697 558.2124939 759.14707947 559.59140015 C758.39168884 560.06448608 757.63629822 560.53757202 756.85801697 561.0249939 C753.29036386 562.95580241 750.49777908 563.27960283 746.50989896 563.28270131 C745.41007614 563.28597351 744.31025332 563.2892457 743.17710254 563.29261705 C741.35377439 563.29039162 741.35377439 563.29039162 739.49361134 563.28812122 C738.20262908 563.29047345 736.91164682 563.29282568 735.58154389 563.29524919 C731.97480257 563.3016681 728.36808347 563.30180932 724.76133753 563.30097178 C720.84623737 563.30114091 716.93114526 563.30704285 713.01604909 563.31221265 C705.24043133 563.32155331 697.46481927 563.32546315 689.6891966 563.32773161 C680.37990801 563.33068985 671.07062701 563.339385 661.7613424 563.34814589 C639.25846771 563.36900622 616.7555917 563.37946235 594.25270959 563.3882755 C583.61178644 563.39247951 572.97086384 563.39770181 562.32994117 563.40296003 C525.92012592 563.42085106 489.51031051 563.43584829 453.10049152 563.44328022 C450.81398936 563.44375498 448.52748721 563.44423087 446.24098505 563.44470788 C444.54010084 563.44506245 444.54010084 563.44506245 442.80485534 563.44542417 C437.05963643 563.4466254 431.31441752 563.44784084 425.56919861 563.44906616 C424.42903352 563.44930631 423.28886844 563.44954646 422.11415289 563.44979389 C385.13472252 563.45768947 348.1553242 563.48112622 311.17590782 563.51362211 C272.09858878 563.54789899 233.0212885 563.56762935 193.94395417 563.57092446 C189.65641446 563.57134202 185.36887476 563.57182158 181.08133507 563.57234764 C180.02558699 563.57247083 178.9698389 563.57259402 177.88209846 563.57272095 C160.87252935 563.57505559 143.86299739 563.5907302 126.85344154 563.61118949 C109.76489283 563.63141813 92.67638887 563.63693883 75.5878304 563.62741885 C65.42921788 563.62219242 55.27075402 563.62813513 45.11216282 563.64995352 C38.33061624 563.66342099 31.54917247 563.66242064 24.76762496 563.64955157 C20.90084491 563.64262784 17.03434989 563.64207722 13.16759483 563.65911166 C9.00476205 563.67730139 4.84259569 563.66464466 0.6797533 563.64888477 C-0.52409296 563.65910698 -1.72793923 563.66932919 -2.96826568 563.67986116 C-9.88813837 563.62234551 -14.31254654 562.79795118 -20.22792053 559.15390015 C-21.11479553 558.61765015 -22.00167053 558.08140015 -22.91542053 557.52890015 C-32.11432553 548.0813761 -30.93188764 536.53681537 -30.85610962 524.23947144 C-30.86115719 522.0889408 -30.86838764 519.93841438 -30.87760776 517.78789759 C-30.89652666 511.8894355 -30.88429793 505.99138834 -30.86688483 500.09293675 C-30.85351214 493.72746806 -30.86894761 487.36206011 -30.88070679 480.99659729 C-30.8980263 469.25125539 -30.89268467 457.50606276 -30.87572003 445.76072411 C-30.86014447 434.90969948 -30.85430197 424.05872267 -30.85806084 413.20768738 C-30.85829764 412.48753935 -30.85853444 411.76739132 -30.85877841 411.02542062 C-30.85975336 408.10200661 -30.86077418 405.17859262 -30.86186352 402.25517864 C-30.87194356 374.83878531 -30.8536903 347.42247595 -30.82214316 320.00610236 C-30.79428309 295.65543623 -30.78931927 271.30486996 -30.80433655 246.95419312 C-30.80815908 240.7184576 -30.8119539 234.48272207 -30.81550694 228.24698639 C-30.81594475 227.47926136 -30.81638256 226.71153632 -30.81683365 225.92054689 C-30.82807673 205.56511182 -30.82072212 185.20968407 -30.80762619 164.85425138 C-30.80623764 162.66362748 -30.80485693 160.47300358 -30.80348777 158.28237967 C-30.80257839 156.82921785 -30.80165572 155.37605603 -30.80071966 153.92289423 C-30.79392753 143.07946082 -30.79658084 132.23605627 -30.80366707 121.3926239 C-30.81163757 109.06147676 -30.80465799 96.73044805 -30.77949203 84.39932072 C-30.76699043 78.10748089 -30.7608587 71.81580821 -30.77203369 65.52396202 C-30.78207092 59.76396338 -30.77362691 54.00429817 -30.75045251 48.24434012 C-30.74529131 46.16103502 -30.74685846 44.07770006 -30.75584716 41.99440795 C-30.80810512 28.78330339 -30.67420898 18.03529345 -21.16542053 7.91171265 C-14.58481325 1.94140362 -8.80345238 0.00549363 0 0 Z " fill="#FED36E" transform="translate(402.22792053222656,698.8460998535156)"/>
<path d="M0 0 C0.71061584 0.00182281 1.42123169 0.00364563 2.15338135 0.00552368 C38.84646072 0.16271683 73.82389454 8.67643441 101.9375 33.3125 C103.09572266 34.32570313 103.09572266 34.32570313 104.27734375 35.359375 C120.94133572 50.93976819 130.6106122 73.84206388 132.9375 96.3125 C132.9375 100.6025 132.9375 104.8925 132.9375 109.3125 C104.8875 109.3125 76.8375 109.3125 47.9375 109.3125 C45.9375 103.3125 45.9375 103.3125 45.04296875 100.53125 C43.08757476 94.73995545 41.07307699 90.79270841 36.9375 86.3125 C36.9375 85.6525 36.9375 84.9925 36.9375 84.3125 C36.37417969 84.0340625 35.81085937 83.755625 35.23046875 83.46875 C33.70161071 82.69780966 32.18310569 81.905987 30.67578125 81.09375 C25.14422509 78.17209071 20.13454172 76.18504347 13.9375 75.3125 C13.01839844 75.1784375 12.09929688 75.044375 11.15234375 74.90625 C-3.58340417 73.26687476 -20.40557643 74.31615742 -32.7421875 83.25390625 C-36.95778029 86.99400288 -39.67703105 92.00297369 -40.3359375 97.66015625 C-40.60896079 104.95827888 -39.37554227 110.33735851 -35.0625 116.3125 C-21.84212737 129.95161747 2.16954221 132.72017663 19.91152954 136.44854736 C43.8271936 141.50998636 67.53353487 147.0490182 88.9375 159.3125 C89.91074219 159.86292969 90.88398438 160.41335938 91.88671875 160.98046875 C112.79179141 173.53544106 128.38219254 192.02755991 134.87890625 215.75 C141.5122171 243.43686267 138.18707935 271.52173592 123.9375 296.3125 C106.34629076 322.28934924 77.51155349 336.70091315 47.42163086 342.75488281 C43.93997986 343.38451217 40.4468879 343.86693841 36.9375 344.3125 C36.18307617 344.41401367 35.42865234 344.51552734 34.65136719 344.62011719 C-10.66554703 350.51969083 -64.98285357 346.82872553 -102.68359375 318.0625 C-125.62653989 299.7770448 -137.74427943 274.8876093 -141.8125 246.125 C-141.94043945 245.22249512 -142.06837891 244.31999023 -142.20019531 243.39013672 C-142.80257935 238.72802366 -143.12408441 234.17860177 -143.09472656 229.4753418 C-143.09007385 228.50308151 -143.08542114 227.53082123 -143.08062744 226.52909851 C-143.07464539 225.797621 -143.06866333 225.06614349 -143.0625 224.3125 C-131.99715142 224.28937717 -120.93180855 224.27158522 -109.86644077 224.26068783 C-104.72890434 224.25545887 -99.59138437 224.24836099 -94.45385742 224.23706055 C-89.5001859 224.22623213 -84.54653026 224.22022326 -79.59284782 224.21762276 C-77.69852384 224.21576843 -75.80420076 224.21214766 -73.9098835 224.20676994 C-71.26615614 224.19956011 -68.62249529 224.19850903 -65.97875977 224.19897461 C-65.18754227 224.19537933 -64.39632477 224.19178406 -63.58113098 224.18807983 C-58.17655216 224.19844784 -58.17655216 224.19844784 -57.0625 225.3125 C-56.75002731 227.06699193 -56.44241359 228.82252403 -56.16259766 230.58251953 C-54.47570292 241.02620952 -51.46921524 249.50542177 -44.0625 257.3125 C-43.4025 257.6425 -42.7425 257.9725 -42.0625 258.3125 C-42.0625 258.9725 -42.0625 259.6325 -42.0625 260.3125 C-41.1034375 260.6528125 -41.1034375 260.6528125 -40.125 261 C-37.54368844 262.10627638 -35.33864519 263.31879676 -32.9375 264.75 C-16.46477437 274.05708998 5.84317642 273.35100521 23.58984375 268.48046875 C29.17805226 266.5307904 33.35533626 264.00368746 37.9375 260.3125 C38.5975 260.3125 39.2575 260.3125 39.9375 260.3125 C44.08535771 252.33585057 47.26927226 245.17703995 44.66015625 236.2265625 C41.32614522 227.39593868 33.96172094 222.76035566 25.81640625 218.8984375 C10.79146928 212.51274062 -5.51848261 209.49992717 -21.40420532 206.07794189 C-58.60597427 198.05800987 -99.78026172 188.31596644 -122 154.375 C-134.57430441 134.16698844 -137.60248065 108.17069673 -132.87988281 84.97485352 C-126.43059689 58.15168705 -109.35513295 35.80914636 -86.0625 21.3125 C-59.9041891 5.9801843 -30.07655105 -0.16212218 0 0 Z " fill="#000000" transform="translate(3225.0625,831.6875)"/>
<path d="M0 0 C23.28730051 20.58202541 30.12383886 46.800308 33 77 C4.62 77 -23.76 77 -53 77 C-54.65 71.72 -56.3 66.44 -58 61 C-63.6320767 51.94450414 -70.52176977 47.0249177 -80.8125 44.1875 C-96.96253974 40.74434432 -116.30932068 40.40493241 -131 49 C-132.0081344 49.99179889 -133.01036187 50.98974441 -134 52 C-134.66 52 -135.32 52 -136 52 C-140.07822616 59.5290329 -142.48303605 66.60799967 -140.49609375 75.171875 C-138.95021209 79.87135525 -136.8024965 82.74071729 -133 86 C-132.236875 86.680625 -131.47375 87.36125 -130.6875 88.0625 C-124.46149342 92.55101637 -117.69880044 94.92924345 -110.3515625 96.94921875 C-109.44080963 97.20434738 -108.53005676 97.45947601 -107.59170532 97.72233582 C-98.51681739 100.21693103 -89.35034901 102.23423547 -80.1517334 104.21148682 C-42.14750083 112.43735568 1.00706561 123.90889824 23.515625 158.76171875 C28.95705313 167.70682016 32.45750611 176.87275543 35 187 C35.36738281 188.39992188 35.36738281 188.39992188 35.7421875 189.828125 C41.2155749 215.47057007 36.16694781 243.31252052 22.1875 265.3125 C14.27859049 276.48780425 5.36593812 284.60249699 -6 292 C-6.95519531 292.63808594 -7.91039062 293.27617188 -8.89453125 293.93359375 C-44.13008758 316.06053752 -94.96109064 318.26793435 -135 312 C-136.23073242 311.8146167 -136.23073242 311.8146167 -137.48632812 311.62548828 C-169.06901112 306.71672538 -201.98284587 294.19820561 -221.59375 267.5625 C-238.07218043 244.21548439 -242.58194676 220.36106483 -244 192 C-215.62 192 -187.24 192 -158 192 C-157.01 197.28 -156.02 202.56 -155 208 C-152.13301855 214.58795738 -150.00781357 219.02463447 -145 224 C-145 224.66 -145 225.32 -145 226 C-144.18208984 226.38865234 -144.18208984 226.38865234 -143.34765625 226.78515625 C-140.61624631 228.19858136 -138.0522402 229.81851971 -135.4375 231.4375 C-119.05382695 241.04792285 -96.93444519 241.45938274 -78.78100586 236.91308594 C-70.23770658 234.47125793 -63.17724523 230.27041104 -58 223 C-54.8640311 216.3770209 -53.8809455 209.92646663 -56.1875 202.875 C-59.56559567 194.7800242 -67.48618897 190.10048632 -75.15625 186.53125 C-92.08631435 179.73028398 -110.24464697 176.25483253 -128.00805664 172.32250977 C-163.71346858 164.41529498 -201.31877071 154.06320254 -223 122 C-235.37306791 100.6443274 -238.32573053 74.76609391 -233.02734375 50.7890625 C-225.69041664 23.7289131 -209.23913257 2.61195847 -185.10205078 -11.58959961 C-131.07235484 -42.32974143 -48.27043421 -42.44333449 0 0 Z " fill="#000000" transform="translate(1716,864)"/>
<path d="M0 0 C200.87335092 0 200.87335092 0 234 31 C234 31.66 234 32.32 234 33 C234.56203125 33.22042969 235.1240625 33.44085937 235.703125 33.66796875 C251.97493578 43.10451208 260.75706895 68.05945184 265.37646484 85.19946289 C273.61487942 117.6301015 270.19563668 154.00843465 253 183 C250.22626717 187.21066662 247.22830748 191.12927013 244 195 C243.22914063 195.93457031 242.45828125 196.86914062 241.6640625 197.83203125 C219.70498061 223.23776515 187.17689097 234.09043541 154.50439453 236.54150391 C147.38195929 237.03009234 140.30088727 237.1291561 133.1640625 237.09765625 C132.05764404 237.09664917 130.95122559 237.09564209 129.8112793 237.09460449 C125.74917538 237.08944352 121.68708645 237.07548342 117.625 237.0625 C108.50875 237.041875 99.3925 237.02125 90 237 C90 270.33 90 303.66 90 338 C60.3 338 30.6 338 0 338 C0 226.46 0 114.92 0 0 Z M90 72 C90 103.35 90 134.7 90 167 C122.07859039 168.86761911 122.07859039 168.86761911 152.5625 160.5625 C153.67753906 159.98628906 154.79257813 159.41007812 155.94140625 158.81640625 C165.77401945 152.97711489 171.73798542 143.87338192 175 133 C177.97638413 118.51493059 176.1696583 104.20206757 168.640625 91.46484375 C163.04638854 83.06016945 155.44580347 78.48184727 146 75 C126.84887514 70.65987308 126.84887514 70.65987308 90 72 Z " fill="#000000" transform="translate(2374,836)"/>
<path d="M0 0 C0.91146001 0.00291284 1.82292002 0.00582568 2.76200002 0.00882679 C4.20273387 0.00754515 4.20273387 0.00754515 5.67257345 0.00623763 C8.9170767 0.0045799 12.16152918 0.01010896 15.40602773 0.01555592 C17.72141672 0.01583775 20.03680579 0.01568013 22.35219473 0.01511341 C28.65979335 0.01482529 34.96737314 0.02072435 41.27496737 0.02768737 C47.85868718 0.03391852 54.44240736 0.03452452 61.02612966 0.03571278 C72.08359252 0.03830589 83.14104874 0.04472809 94.1985082 0.05364186 C105.58978389 0.06281519 116.98105769 0.06989641 128.37233633 0.07414967 C129.42485818 0.07454375 129.42485818 0.07454375 130.49864311 0.0749458 C134.01862921 0.0762508 137.53861532 0.07751452 141.05860144 0.0787577 C170.27915183 0.08913126 199.49969215 0.10757006 228.72023672 0.12908131 C228.72023672 24.21908131 228.72023672 48.30908131 228.72023672 73.12908131 C180.54023672 73.12908131 132.36023672 73.12908131 82.72023672 73.12908131 C82.72023672 92.92908131 82.72023672 112.72908131 82.72023672 133.12908131 C126.28023672 133.12908131 169.84023672 133.12908131 214.72023672 133.12908131 C214.72023672 156.88908131 214.72023672 180.64908131 214.72023672 205.12908131 C171.16023672 205.12908131 127.60023672 205.12908131 82.72023672 205.12908131 C82.72023672 249.01908131 82.72023672 292.90908131 82.72023672 338.12908131 C53.02023672 338.12908131 23.32023672 338.12908131 -7.27976328 338.12908131 C-7.30178876 295.2142943 -7.32026058 252.29951259 -7.33082861 209.38472155 C-7.33207939 204.32384081 -7.33337371 199.26296008 -7.33469492 194.20207936 C-7.33495723 193.19450449 -7.33521954 192.18692962 -7.3354898 191.14882218 C-7.33984689 174.8118168 -7.34773465 158.47481491 -7.35691608 142.13781161 C-7.36625154 125.38763319 -7.37181866 108.63745661 -7.37385178 91.8872757 C-7.37522723 81.54279089 -7.37957901 71.19831597 -7.38767975 60.8538342 C-7.39294588 53.77034271 -7.39456788 46.68685636 -7.39326466 39.60336304 C-7.39262107 35.51016877 -7.39364113 31.41699185 -7.39896876 27.32380062 C-7.40380272 23.58280073 -7.40410196 19.84183 -7.40066218 16.10082882 C-7.40003353 14.09338489 -7.40437529 12.08594135 -7.40884459 10.0785023 C-7.40685354 8.90260694 -7.40486249 7.72671158 -7.40281111 6.51518303 C-7.40319083 5.49183674 -7.40357055 4.46849045 -7.40396178 3.41413367 C-7.14850837 -1.28579772 -3.96920282 0.00963073 0 0 Z " fill="#000000" transform="translate(1795.2797632813454,835.8709186911583)"/>
<path d="M0 0 C96.03 0 192.06 0 291 0 C291 24.09 291 48.18 291 73 C257.34 73 223.68 73 189 73 C189 160.45 189 247.9 189 338 C159.96 338 130.92 338 101 338 C101 250.55 101 163.1 101 73 C67.67 73 34.34 73 0 73 C0 48.91 0 24.82 0 0 Z " fill="#000000" transform="translate(2049,836)"/>
<path d="M0 0 C29.04 0 58.08 0 88 0 C88.06627692 30.25116501 88.12161506 60.50228687 88.15319599 90.75350361 C88.1569476 94.33412298 88.16083062 97.91474219 88.16479492 101.49536133 C88.16558185 102.20812498 88.16636878 102.92088862 88.16717956 103.65525117 C88.18019324 115.15932317 88.20382453 126.66334968 88.23145839 138.16739479 C88.25962551 149.99306348 88.27620001 161.81870851 88.28226548 173.64440936 C88.2859936 180.2776806 88.295254 186.91086767 88.31719017 193.54410744 C88.33771198 199.80097872 88.34380236 206.05770588 88.33932304 212.31460762 C88.34014127 214.59807878 88.34601256 216.88155528 88.35761642 219.1649971 C88.4377219 235.75698716 87.95305471 252.58222723 82.25 268.375 C81.99323486 269.10992676 81.73646973 269.84485352 81.47192383 270.60205078 C71.7835514 297.35652767 51.62295186 317.38036027 26.25 329.375 C23.51478941 330.61929911 20.7635465 331.82017266 18 333 C17.05898437 333.40992188 16.11796875 333.81984375 15.1484375 334.2421875 C1.94161869 339.51673743 -13.44915096 342.12427355 -27.6171875 342.203125 C-28.43261017 342.20882507 -29.24803284 342.21452515 -30.08816528 342.22039795 C-31.81104252 342.22980349 -33.53393738 342.23636414 -35.25683594 342.24023438 C-37.83302317 342.24984343 -40.40837773 342.28086841 -42.984375 342.3125 C-74.25830891 342.51315338 -105.5409228 333.35171785 -128.3125 311.25 C-149.26328506 289.94219681 -155 261.95607774 -155 233 C-125.63 233 -96.26 233 -66 233 C-65.01 238.28 -64.02 243.56 -63 249 C-61.75226212 252.30046793 -60.67284308 254.99663307 -59 258 C-58.46375 259.051875 -57.9275 260.10375 -57.375 261.1875 C-51.51292983 268.1294252 -44.11210111 270.86016364 -35.2421875 271.8828125 C-27.34346786 272.16830839 -19.56572155 270.55703049 -13 266 C-1.33657037 254.33657037 -0.85917763 238.38583246 -0.84178162 222.83161926 C-0.83684364 221.87075289 -0.83190566 220.90988652 -0.82681805 219.91990298 C-0.81158899 216.73411984 -0.80312246 213.54835661 -0.79467773 210.36254883 C-0.7850877 208.06538725 -0.77507698 205.7682274 -0.76467896 203.47106934 C-0.73774568 197.25912 -0.71667374 191.04716316 -0.69667697 184.83518815 C-0.67474566 178.33425942 -0.64739205 171.83335352 -0.62062073 165.33244324 C-0.57644617 154.42891421 -0.5355949 143.52537742 -0.49731445 132.62182617 C-0.45789306 121.3959054 -0.41645115 110.16999506 -0.37231445 98.9440918 C-0.36822804 97.90447178 -0.36822804 97.90447178 -0.36405908 96.84384934 C-0.35037851 93.36653758 -0.33665845 89.88922599 -0.32291877 86.41191447 C-0.20915854 57.6079642 -0.10309278 28.80399061 0 0 Z " fill="#000000" transform="translate(2959,836)"/>
<path d="M0 0 C0.84897006 -0.00438225 1.69794012 -0.00876451 2.57263654 -0.01327956 C5.42826362 -0.0266746 8.28385983 -0.03284806 11.13951111 -0.03897095 C13.18281697 -0.04687148 15.22612144 -0.0551404 17.26942444 -0.06375122 C23.99034796 -0.08998133 30.71127773 -0.10528186 37.43223572 -0.11953735 C39.74594565 -0.12489701 42.05965555 -0.13027452 44.3733654 -0.13566971 C53.99923824 -0.15730167 63.6251094 -0.17603752 73.2510004 -0.1872921 C87.04391869 -0.2035247 100.83655496 -0.23668243 114.62936693 -0.29369295 C124.32801729 -0.33241275 134.02659228 -0.35192734 143.7253179 -0.35721266 C149.51718235 -0.36086386 155.30874608 -0.37286065 161.10052681 -0.4053154 C166.55315046 -0.43543084 172.00529199 -0.44169521 177.45798111 -0.42993164 C179.45498516 -0.42971119 181.4520118 -0.43799285 183.44893837 -0.45558548 C197.04454589 -0.56880188 206.03362906 0.60119806 216.59239197 9.8218689 C217.77207947 11.15390015 217.77207947 11.15390015 217.77207947 13.15390015 C218.43207947 13.15390015 219.09207947 13.15390015 219.77207947 13.15390015 C220.97129822 14.3765564 220.97129822 14.3765564 222.45957947 16.21640015 C238.36280034 35.32737019 238.36280034 35.32737019 260.60212368 44.43095362 C261.58852921 44.44364106 262.57493474 44.4563285 263.59123135 44.46940041 C265.3121833 44.49819011 265.3121833 44.49819011 267.06790197 44.52756143 C268.32052819 44.53844662 269.57315442 44.54933182 270.86373901 44.56054688 C272.21787406 44.57885171 273.57199933 44.59789139 274.92611468 44.61759925 C278.65554299 44.66890872 282.38500406 44.70706688 286.11461468 44.74232385 C288.51564532 44.76596328 290.91661084 44.79314248 293.31759059 44.82146192 C335.26687817 45.31457698 377.21929307 45.32332913 419.17091054 45.35569813 C431.80986297 45.36600613 444.44879819 45.38607308 457.08773804 45.40625 C461.83573621 45.41371796 466.58373447 45.42113282 471.33173275 45.42853737 C472.51606862 45.43038793 473.70040448 45.4322385 474.92062931 45.43414515 C488.2323574 45.45483779 501.54408771 45.47379365 514.8558197 45.49179077 C516.0655072 45.49342895 517.27519469 45.49506714 518.52153938 45.49675496 C538.30876055 45.52328187 558.09598355 45.54181508 577.8832152 45.55838268 C598.34333129 45.57578806 618.80341086 45.60457807 639.26349777 45.64327204 C651.81852513 45.66659944 664.37349315 45.68065997 676.92854237 45.68259968 C685.48361524 45.68470505 694.03862834 45.69760023 702.59367437 45.719079 C707.52268132 45.73111352 712.45156956 45.73825453 717.38059044 45.73236656 C721.89013848 45.72707524 726.39944399 45.73553295 730.90895151 45.75492294 C732.53879249 45.75949937 734.16865717 45.75902677 735.79849333 45.75297455 C746.94621822 45.7152685 755.36973328 45.94251638 763.77207947 54.15390015 C767.84976448 59.6642853 768.89841149 63.21321203 768.86973572 70.0093689 C768.86832077 70.6710054 768.86690582 71.33264191 768.865448 72.014328 C768.85985943 74.12339842 768.84730911 76.23236192 768.83457947 78.34140015 C768.82956299 79.77303924 768.82500034 81.20467999 768.82090759 82.63632202 C768.81074547 86.14225554 768.79116808 89.64795842 768.77207947 93.15390015 C763.82207947 93.15390015 758.87207947 93.15390015 753.77207947 93.15390015 C753.67411072 92.06850952 753.57614197 90.9831189 753.47520447 89.86483765 C753.32503271 88.4194345 753.17394214 86.97412661 753.02207947 85.52890015 C752.96020447 84.81604858 752.89832947 84.10319702 752.83457947 83.3687439 C752.18490704 77.4675527 750.2784065 73.35642996 745.70957947 69.34140015 C742.36170242 67.28947551 739.6292134 67.02826247 735.79613894 67.02509898 C734.76030745 67.02182679 733.72447595 67.01855459 732.65725562 67.01518324 C731.51332737 67.01666686 730.36939913 67.01815049 729.19080639 67.01967907 C727.97520176 67.01732684 726.75959712 67.01497461 725.50715598 67.0125511 C722.11182017 67.00701431 718.7165359 67.00599086 715.32119913 67.00682851 C711.6353074 67.00665935 707.94942423 67.0007571 704.26353675 66.99558765 C696.94357083 66.98624794 689.62361095 66.9823373 682.30363981 66.98006868 C673.53980785 66.97711022 664.77598396 66.96841498 656.01215622 66.9596544 C634.82868302 66.93879564 613.64520842 66.92833842 592.46172734 66.91952479 C582.44532815 66.91532081 572.42892956 66.91009852 562.41253088 66.90484026 C528.14124912 66.88694991 493.86996719 66.87195231 459.59868145 66.86452007 C457.4465625 66.86404531 455.29444356 66.86356942 453.14232462 66.86309241 C452.07504412 66.86285604 451.00776362 66.86261966 449.90814128 66.86237612 C444.50056404 66.86117489 439.09298679 66.85995945 433.68540955 66.85873413 C432.61225086 66.85849398 431.53909218 66.85825383 430.43341354 66.8580064 C395.62258408 66.85010978 360.81178865 66.82667053 326.00097406 66.79417819 C289.21707954 66.75990669 252.43320495 66.74017148 215.6492942 66.73687583 C211.61399288 66.73645827 207.57869158 66.73597871 203.54339027 66.73545265 C202.54974912 66.73532946 201.55610796 66.73520627 200.53235647 66.73507934 C184.51917246 66.7327441 168.50602788 66.71706626 152.49285794 66.69661081 C136.40804899 66.67638923 120.32328756 66.6708581 104.23846825 66.68038144 C94.67487006 66.68561054 85.11142973 66.67965269 75.54785416 66.65784677 C69.16548037 66.64439025 62.78321586 66.64536983 56.40084111 66.65824873 C52.76040475 66.66517984 49.12027128 66.66569838 45.47986134 66.64868864 C41.56338906 66.63053745 37.6473667 66.64313683 33.73087597 66.65891552 C32.02551885 66.64358221 32.02551885 66.64358221 30.28571007 66.62793913 C24.1500749 66.68230902 20.39390868 66.96170134 15.77207947 71.15390015 C15.11207947 72.14390015 14.45207947 73.13390015 13.77207947 74.15390015 C12.67895447 74.44265015 11.58582947 74.73140015 10.45957947 75.02890015 C6.16053203 76.34047394 4.56092262 77.66784621 1.77207947 81.15390015 C-0.03836279 84.83944331 -1.23162518 88.16871875 -2.22792053 92.15390015 C-11.46792053 92.15390015 -20.70792053 92.15390015 -30.22792053 92.15390015 C-30.31862916 83.46052462 -30.39186998 74.76746824 -30.43516922 66.07372475 C-30.45596057 62.0359793 -30.48412126 57.99857705 -30.52967834 53.96102905 C-30.57344099 50.05766853 -30.59712105 46.15463615 -30.6074295 42.25104904 C-30.61476678 40.76882138 -30.62909354 39.28660975 -30.65084076 37.80452347 C-30.816746 26.01916666 -29.45554847 16.73784024 -21.16542053 7.91171265 C-14.58481325 1.94140362 -8.80345238 0.00549363 0 0 Z " fill="#FBB947" transform="translate(402.22792053222656,698.8460998535156)"/>
<path d="M0 0 C1.0358315 -0.00526326 2.07166299 -0.01052652 3.13888332 -0.01594928 C4.28281157 -0.01155279 5.42673981 -0.00715631 6.60533255 -0.0026266 C7.82093719 -0.00583308 9.03654182 -0.00903955 10.28898296 -0.0123432 C13.68437819 -0.01924773 17.07955639 -0.01711864 20.47493982 -0.01128747 C24.16083581 -0.00713431 27.84671113 -0.01450935 31.53260219 -0.02043998 C37.99969305 -0.02922564 44.46675226 -0.03050573 50.93384761 -0.02693671 C60.5505707 -0.02164342 70.16726298 -0.02771114 79.78398272 -0.03601964 C97.95662301 -0.05128759 116.1292494 -0.05296182 134.30189476 -0.05049662 C148.33257255 -0.04866625 162.36324577 -0.05041816 176.39392298 -0.05472106 C178.40740372 -0.05532345 180.42088445 -0.05592465 182.43436518 -0.05652466 C185.46824219 -0.05743188 188.5021192 -0.05834055 191.53599621 -0.05925701 C219.75648352 -0.0676909 247.9769691 -0.07201926 276.19745749 -0.06785029 C277.79439824 -0.06761573 277.79439824 -0.06761573 279.42360043 -0.06737643 C284.81993911 -0.0665706 290.21627778 -0.06572483 295.61261646 -0.06486312 C297.22030058 -0.06460649 297.22030058 -0.06460649 298.86046317 -0.06434468 C301.02788392 -0.06399802 303.19530466 -0.06364949 305.36272541 -0.06329909 C339.09058603 -0.05794143 372.81842052 -0.06587179 406.54627627 -0.08433264 C444.41313583 -0.10503454 482.2799792 -0.11577878 520.14684474 -0.11175716 C524.18214605 -0.11136179 528.21744736 -0.11100025 532.25274867 -0.11065978 C533.24638982 -0.11056905 534.24003098 -0.11047831 535.26378248 -0.11038483 C550.28436391 -0.10921733 565.30492903 -0.11587882 580.32550639 -0.1264717 C597.40290632 -0.13850259 614.48027024 -0.14010713 631.55767069 -0.12768153 C641.12123967 -0.12103504 650.68472262 -0.12272504 660.24828478 -0.13627005 C666.63064583 -0.14448298 673.01294211 -0.14185831 679.39529784 -0.13029478 C683.03568372 -0.12400681 686.67590113 -0.12251814 690.3162776 -0.13415811 C694.23269189 -0.14656593 698.14884613 -0.13591714 702.06526297 -0.12288111 C703.20216772 -0.13019046 704.33907247 -0.13749981 705.51042888 -0.14503065 C711.88262807 -0.10072491 716.78483713 0.22806187 721.66859072 4.78700525 C727.94221805 12.99097944 726.02405947 12.32079635 726.02405947 26.251849 C477.20405947 26.251849 228.38405947 26.251849 -27.97594053 26.251849 C-27.97594053 16.88342794 -27.97594053 16.88342794 -23.97594053 12.251849 C-21.1059643 9.99250601 -19.03288952 8.4323037 -15.41344053 7.814349 C-11.90151358 7.00390432 -10.38256126 4.84846611 -7.97594053 2.251849 C-4.70402553 0.07057234 -3.78723817 0.00151956 0 0 Z " fill="#FEFEFE" transform="translate(428.97594052553177,764.7481510043144)"/>
<path d="M0 0 C4.43228254 4.03883717 7.38760018 8.46169506 10.5 13.5625 C11.55996181 15.27029907 12.62120257 16.97730489 13.68359375 18.68359375 C14.22870605 19.56128418 14.77381836 20.43897461 15.33544922 21.34326172 C18.02601913 25.63759756 20.79229604 29.88175762 23.5625 34.125 C24.65494933 35.80078033 25.74739726 37.47656157 26.83984375 39.15234375 C27.3694873 39.96429199 27.89913086 40.77624023 28.44482422 41.61279297 C30.84632762 45.29911953 33.23624527 48.99290412 35.625 52.6875 C36.0674707 53.37150879 36.50994141 54.05551758 36.96582031 54.76025391 C39.28482433 58.3456343 41.6019948 61.93219291 43.91796875 65.51953125 C44.88280128 67.01302808 45.84764484 68.50651779 46.8125 70 C47.27132568 70.71124023 47.73015137 71.42248047 48.20288086 72.15527344 C51.09360038 76.62788679 54.03551989 81.05957933 57.07421875 85.43359375 C58 87 58 87 58 89 C45.13 89 32.26 89 19 89 C19 149.39 19 209.78 19 272 C7.12 272 -4.76 272 -17 272 C-17 211.61 -17 151.22 -17 89 C-30.2 89 -43.4 89 -57 89 C-55.48329506 85.20823764 -54.17633456 82.50730755 -51.98046875 79.18359375 C-51.07530518 77.80554565 -51.07530518 77.80554565 -50.15185547 76.3996582 C-49.50361816 75.422146 -48.85538086 74.44463379 -48.1875 73.4375 C-46.81882297 71.35689413 -45.45033669 69.27616276 -44.08203125 67.1953125 C-43.39447754 66.1527832 -42.70692383 65.11025391 -41.99853516 64.03613281 C-39.1051071 59.64049742 -36.23896888 55.22736251 -33.375 50.8125 C-32.31260273 49.17701659 -31.25010284 47.54159985 -30.1875 45.90625 C-29.66414062 45.10058594 -29.14078125 44.29492188 -28.6015625 43.46484375 C-26.9641913 40.94488954 -25.32596822 38.42549105 -23.6875 35.90625 C-23.13900391 35.06280029 -22.59050781 34.21935059 -22.02539062 33.3503418 C-20.93566483 31.67464659 -19.84582338 29.99902659 -18.75585938 28.32348633 C-16.11096399 24.25562753 -13.47174589 20.18426911 -10.84375 16.10546875 C-10.34311035 15.32905029 -9.8424707 14.55263184 -9.32666016 13.75268555 C-8.38753504 12.29535163 -7.44962692 10.83723244 -6.51318359 9.37817383 C-4.4423219 6.16527527 -2.35452798 3.01625806 0 0 Z " fill="#010100" transform="translate(770,875)"/>
<path d="M0 0 C9.8722043 7.29024317 16.36965263 17.70120412 18.5390625 29.875 C19.84064911 42.45700394 16.78701947 53.8739926 9.640625 64.3046875 C1.9861772 73.66644708 -8.45619892 79.99518822 -20.4609375 81.875 C-33.06546481 82.93260133 -45.05885255 80.68951958 -55.21484375 72.8515625 C-65.5329146 63.77166015 -71.62900578 53.42133448 -72.71484375 39.65625 C-73.17810735 26.14688576 -69.76857963 14.86748536 -60.4609375 4.875 C-42.8833319 -10.52484915 -19.58029434 -13.23738209 0 0 Z " fill="#000000" transform="translate(2753.4609375,1097.125)"/>
<path d="M0 0 C1.04032608 -0.00751056 2.08065217 -0.01502111 3.15250328 -0.02275926 C4.86051461 -0.01222401 4.86051461 -0.01222401 6.60303122 -0.00147593 C8.4298997 -0.00801641 8.4298997 -0.00801641 10.29367462 -0.01468903 C13.68631813 -0.0237759 17.07846576 -0.01936504 20.47107521 -0.00935517 C24.15736284 -0.00176307 27.84361055 -0.01151765 31.52989256 -0.01908517 C37.99457277 -0.02993743 44.45917786 -0.02958103 50.92386156 -0.02194369 C60.53695595 -0.01061759 70.14998673 -0.01638634 79.76308066 -0.02556861 C96.93020072 -0.04138532 114.09728734 -0.03998887 131.2644106 -0.03133187 C146.28803748 -0.02379276 161.31165209 -0.02181157 176.33528048 -0.0253998 C177.33084937 -0.02562896 178.32641825 -0.02585811 179.3521559 -0.02609421 C183.393247 -0.02702819 187.4343381 -0.02798339 191.4754292 -0.02897351 C229.40479196 -0.03815601 267.33413339 -0.02982152 305.26349286 -0.01368281 C338.97825419 0.00055351 372.69298153 -0.00071833 406.40774256 -0.01506579 C444.26509649 -0.0311222 482.12243156 -0.03750376 519.97978842 -0.028229 C524.01393518 -0.02726681 528.04808195 -0.02632829 532.08222872 -0.0253998 C533.57225095 -0.02504396 533.57225095 -0.02504396 535.09237465 -0.02468092 C550.10766824 -0.0212653 565.12294821 -0.02526531 580.13823992 -0.03283846 C597.20827451 -0.0414049 614.27827035 -0.03929606 631.34830009 -0.02299623 C640.90743346 -0.01417006 650.46648297 -0.01363721 660.0256142 -0.02493476 C666.40495169 -0.03164413 672.78422171 -0.02750753 679.16354918 -0.01442045 C682.80216954 -0.00726077 686.44062287 -0.00489211 690.07923817 -0.0156384 C693.9937328 -0.02708195 697.90796167 -0.01547373 701.8224526 -0.00147593 C702.95878566 -0.00849943 704.09511871 -0.01552293 705.2658861 -0.02275926 C711.63612038 0.02311976 716.53804741 0.35376074 721.42019373 4.91120374 C725.29967635 9.98437332 725.91340688 12.72682227 725.83816248 19.00104749 C725.83365076 19.70745374 725.82913904 20.41385999 725.82449061 21.14167249 C725.81270123 22.88650024 725.79476573 24.63128449 725.77566248 26.37604749 C721.48566248 26.37604749 717.19566248 26.37604749 712.77566248 26.37604749 C712.31993332 23.90208916 711.86420415 21.42813083 711.40847498 18.95417249 C710.5729495 15.55017977 709.89398901 13.06147343 706.83816248 11.18854749 C703.0300752 9.6883919 700.1336627 9.24847243 696.05508143 9.2401756 C694.85345187 9.23531772 693.65182231 9.23045984 692.41377974 9.22545475 C691.07151671 9.22506925 689.72925367 9.22477373 688.38699061 9.22455823 C686.96348236 9.22070879 685.53997524 9.21642246 684.1164695 9.2117365 C680.18234297 9.20005777 676.24822804 9.19460417 672.31408764 9.19010346 C668.05195183 9.18413809 663.7898314 9.17242527 659.52770621 9.16140306 C652.07079078 9.14290359 644.61387501 9.1280564 637.1569472 9.11556661 C626.13771255 9.09707362 615.11849622 9.07278361 604.09927615 9.04714707 C585.72091417 9.00451235 567.34254574 8.96616026 548.96416956 8.93021619 C521.80488637 8.87702179 494.64562074 8.81696328 467.48635584 8.75519788 C465.20558566 8.75001779 462.92481548 8.74483826 460.64404529 8.73965931 C451.48139908 8.71884583 442.31875291 8.69801217 433.15610695 8.67708725 C421.60369913 8.65071866 410.05129087 8.6245717 398.4988814 8.59893453 C334.38401911 8.45664517 270.26927257 8.29268979 206.15456873 8.09089124 C205.21991154 8.08794988 204.28525435 8.08500852 203.32227421 8.08197802 C178.23687725 8.00296 153.15148872 7.92142271 128.06610302 7.83892011 C119.44908611 7.81059483 110.83206833 7.78253862 102.21505045 7.75451029 C64.06858081 7.63042449 25.92211731 7.50461518 -12.22433752 7.37604749 C-10.08023753 1.72342024 -5.78579713 0.00131399 0 0 Z " fill="#E3E2E2" transform="translate(429.2243375182152,764.6239525079727)"/>
</svg>
